<svg version="1.1" id="Layer_1" xmlns="http://www.w3.org/2000/svg" xmlns:xlink="http://www.w3.org/1999/xlink" x="0px" y="0px"
	 width="100%" viewBox="0 0 512 512" enable-background="new 0 0 512 512" xml:space="preserve">
<path fill="#800020" opacity="1.000000" stroke="none" 
	d="
M341.000000,513.000000 
	C227.360947,513.000000 114.221886,513.000000 1.041413,513.000000 
	C1.041413,342.402588 1.041413,171.805161 1.041413,1.103867 
	C171.555725,1.103867 342.111542,1.103867 512.833679,1.103867 
	C512.833679,171.666534 512.833679,342.333252 512.833679,513.000000 
	C455.805145,513.000000 398.652557,513.000000 341.000000,513.000000 
M281.477142,400.910492 
	C284.636719,404.781799 287.368164,409.127014 291.033508,412.438538 
	C303.744385,423.922455 318.832611,425.451355 334.556366,420.833527 
	C343.360321,418.247925 347.997345,409.333405 347.998169,398.140625 
	C348.005524,297.662842 348.002441,197.185043 348.001953,96.707253 
	C348.001953,95.707535 348.044067,94.704834 347.983643,93.708557 
	C347.446808,84.857338 341.737183,77.221191 333.243164,75.350647 
	C307.387024,69.656616 276.207397,86.203217 276.227509,118.932961 
	C276.279907,204.247406 276.290375,289.561951 276.177429,374.876282 
	C276.165710,383.739899 277.275757,392.209534 281.477142,400.910492 
M237.755249,198.500122 
	C237.755219,189.334595 238.007935,180.160294 237.690155,171.005798 
	C237.306793,159.961655 233.793610,150.130112 225.539917,142.247116 
	C216.131744,133.261459 204.682327,130.816849 192.216919,130.972672 
	C178.594345,131.142960 168.070694,141.017975 168.047211,154.563309 
	C167.936859,218.220886 167.959488,281.878784 168.033875,345.536499 
	C168.046860,356.647949 175.809082,366.797302 186.281509,368.781708 
	C201.387756,371.644196 215.206223,368.482269 226.658234,357.720062 
	C234.597275,350.259216 237.665619,340.544678 237.698532,329.981750 
	C237.834076,286.488251 237.755234,242.994080 237.755249,198.500122 
z"/>
<path fill="#FEFEFE" opacity="1.000000" stroke="none" 
	d="
M281.278625,400.579926 
	C277.275757,392.209534 276.165710,383.739899 276.177429,374.876282 
	C276.290375,289.561951 276.279907,204.247406 276.227509,118.932961 
	C276.207397,86.203217 307.387024,69.656616 333.243164,75.350647 
	C341.737183,77.221191 347.446808,84.857338 347.983643,93.708557 
	C348.044067,94.704834 348.001953,95.707535 348.001953,96.707253 
	C348.002441,197.185043 348.005524,297.662842 347.998169,398.140625 
	C347.997345,409.333405 343.360321,418.247925 334.556366,420.833527 
	C318.832611,425.451355 303.744385,423.922455 291.033508,412.438538 
	C287.368164,409.127014 284.636719,404.781799 281.278625,400.579926 
z"/>
<path fill="#FEFEFE" opacity="1.000000" stroke="none" 
	d="
M237.755249,199.000137 
	C237.755234,242.994080 237.834076,286.488251 237.698532,329.981750 
	C237.665619,340.544678 234.597275,350.259216 226.658234,357.720062 
	C215.206223,368.482269 201.387756,371.644196 186.281509,368.781708 
	C175.809082,366.797302 168.046860,356.647949 168.033875,345.536499 
	C167.959488,281.878784 167.936859,218.220886 168.047211,154.563309 
	C168.070694,141.017975 178.594345,131.142960 192.216919,130.972672 
	C204.682327,130.816849 216.131744,133.261459 225.539917,142.247116 
	C233.793610,150.130112 237.306793,159.961655 237.690155,171.005798 
	C238.007935,180.160294 237.755219,189.334595 237.755249,199.000137 
z"/>
</svg>